<?xml version="1.0" standalone="no"?>
<!DOCTYPE svg PUBLIC "-//W3C//DTD SVG 20010904//EN"
 "http://www.w3.org/TR/2001/REC-SVG-20010904/DTD/svg10.dtd">
<svg version="1.0" xmlns="http://www.w3.org/2000/svg"
 width="1280.000000pt" height="731.000000pt" viewBox="0 0 1280.000000 731.000000"
 preserveAspectRatio="xMidYMid meet">
<metadata>
Created by potrace 1.16, written by Peter Selinger 2001-2019
</metadata>
<g transform="translate(0.000000,731.000000) scale(0.100000,-0.100000)"
fill="#000000" stroke="none">
<path d="M3995 7045 c-48 -25 -65 -52 -65 -106 0 -26 5 -51 11 -54 5 -4 23
-34 40 -68 25 -52 29 -72 29 -141 0 -44 -5 -94 -12 -112 -9 -26 -9 -38 1 -56
16 -32 21 -459 4 -479 -21 -26 -34 -99 -43 -252 -7 -124 -14 -169 -37 -238
-26 -79 -28 -93 -26 -233 2 -108 6 -152 15 -158 22 -13 262 -10 282 5 15 11
17 32 17 167 0 156 -8 222 -61 464 -26 123 -39 327 -42 697 l-3 317 38 54 c51
74 50 113 -1 168 -33 33 -45 40 -78 40 -21 0 -52 -7 -69 -15z"/>
<path d="M4555 5330 c-27 -4 -58 -10 -68 -15 -25 -11 -47 -58 -54 -114 l-5
-48 143 -6 c205 -10 592 -8 608 2 22 14 4 107 -28 144 -25 28 -35 31 -117 38
-108 9 -410 9 -479 -1z"/>
<path d="M4247 4513 c-25 -29 -26 -83 -1 -107 14 -14 73 -16 507 -16 555 0
537 -2 537 70 0 72 18 70 -536 70 -455 0 -492 -1 -507 -17z"/>
<path d="M10482 3947 c-30 -17 -46 -42 -67 -107 -23 -70 -72 -200 -85 -222
-23 -41 -161 -399 -158 -410 2 -6 146 -59 319 -119 172 -59 372 -128 442 -153
71 -24 134 -43 140 -40 9 3 12 130 12 502 0 273 -1 505 -3 514 -1 10 -15 24
-32 33 -39 20 -532 22 -568 2z"/>
<path d="M11473 3408 c-56 -40 -58 -57 -39 -278 9 -109 21 -213 26 -231 6 -19
10 -51 10 -71 0 -32 -4 -39 -25 -44 -25 -6 -25 -8 -26 -108 -2 -211 3 -246 39
-289 13 -15 14 -27 4 -80 -18 -97 -45 -444 -38 -482 10 -52 56 -85 118 -85 44
0 54 4 84 34 42 42 42 53 14 365 -14 157 -17 227 -10 241 6 11 28 24 49 30 51
13 86 51 100 105 17 67 13 116 -11 165 -18 36 -34 50 -77 71 -30 15 -58 34
-63 42 -5 10 0 105 12 237 24 269 25 319 4 348 -37 53 -118 67 -171 30z"/>
<path d="M3316 3049 c-122 -29 -258 -141 -315 -262 -125 -261 14 -574 292
-659 57 -17 87 -20 172 -16 92 4 110 8 179 41 175 83 277 240 277 428 0 90
-12 142 -51 219 -83 163 -248 261 -434 259 -44 -1 -98 -5 -120 -10z m265 -166
c54 -20 76 -34 101 -67 18 -22 38 -44 45 -49 19 -12 53 -114 53 -161 0 -57
-35 -171 -69 -221 -41 -61 -107 -100 -212 -124 -137 -32 -200 -13 -299 89 -48
49 -59 67 -79 135 -47 158 -5 287 125 375 92 64 204 72 335 23z"/>
<path d="M4649 3046 c-115 -32 -230 -121 -292 -226 -72 -124 -76 -325 -7 -460
27 -53 124 -156 177 -187 73 -42 155 -63 254 -63 144 0 257 48 351 148 90 96
128 194 128 329 0 218 -134 393 -349 457 -65 19 -196 20 -262 2z m261 -158
c52 -17 75 -32 114 -72 75 -80 91 -116 91 -216 0 -108 -22 -174 -80 -238 -52
-57 -111 -86 -221 -107 -84 -16 -136 -10 -181 21 -14 11 -33 24 -42 29 -70 43
-88 66 -116 147 -19 58 -28 103 -28 149 0 154 116 288 268 308 66 9 117 4 195
-21z"/>
<path d="M9947 2632 c-22 -25 -21 -64 2 -93 l19 -24 487 -3 486 -3 29 30 c35
35 38 59 10 89 l-21 22 -498 0 c-470 0 -499 -1 -514 -18z"/>
<path d="M10835 2200 c-121 -43 -314 -111 -430 -150 -115 -39 -216 -78 -224
-85 -11 -11 -10 -22 9 -71 12 -33 30 -75 40 -94 10 -19 31 -73 46 -120 15 -47
36 -103 47 -125 11 -22 44 -103 73 -180 30 -77 61 -146 71 -152 12 -10 88 -13
295 -13 l279 0 25 25 25 25 -3 502 c-3 466 -6 521 -28 517 -3 -1 -104 -37
-225 -79z"/>
</g>
</svg>
